<?xml version="1.0" encoding="utf-8"?>
<!-- Generator: Adobe Illustrator 24.0.0, SVG Export Plug-In . SVG Version: 6.00 Build 0)  -->
<svg version="1.1" id="Layer_3" xmlns="http://www.w3.org/2000/svg" xmlns:xlink="http://www.w3.org/1999/xlink" x="0px" y="0px"
	 viewBox="0 0 493.09 107.59" style="enable-background:new 0 0 493.09 107.59;" xml:space="preserve">
<style type="text/css">
	.st0{fill:#FFFFFF;}
	.st1{fill:#E6E6E6;}
	.st2{fill:none;stroke:#FFC600;stroke-width:4;stroke-miterlimit:10;}
	.st3{fill:#FFC600;}
</style>
<g>
	<path class="st0" d="M25.92,59.75v46.34H13.81V59.75H0V49.46h39.73v10.29H25.92z"/>
	<path class="st0" d="M88.49,106.08H74.56L59.71,79.63v26.46H47.64V49.46h17.28c6.87,0,12.01,1.33,15.43,4
		c3.42,2.67,5.13,6.69,5.13,12.05c0,3.89-1.17,7.22-3.51,9.98c-2.34,2.76-5.36,4.37-9.06,4.83L88.49,106.08z M59.71,73.59h1.81
		c4.89,0,8.11-0.53,9.68-1.6c1.57-1.07,2.35-2.93,2.35-5.59c0-2.78-0.84-4.76-2.53-5.94c-1.69-1.17-4.85-1.76-9.51-1.76h-1.81V73.59
		z"/>
	<path class="st0" d="M88.8,106.08l21.49-56.62h13.81l21.79,56.62h-13.73l-4.59-12.03h-21.87l-3.93,12.03H88.8z M124.75,84.54
		l-6.33-18.29c-0.18-0.54-0.41-1.47-0.69-2.78c-0.28-1.32-0.58-2.93-0.89-4.83c-0.33,1.83-0.66,3.47-0.96,4.93
		c-0.31,1.46-0.54,2.43-0.69,2.92l-6.09,18.06H124.75z"/>
	<path class="st0" d="M164.75,106.08l-20.87-56.62h13.35l10.99,35.31c0.21,0.72,0.53,2.06,0.96,4.02c0.44,1.96,0.9,4.19,1.39,6.69
		c0.33-2.42,0.7-4.58,1.1-6.46c0.4-1.88,0.79-3.43,1.18-4.64L184,49.46h13.19l-21.02,56.62H164.75z"/>
	<path class="st0" d="M276.08,106.08V49.46h12.07v46.34h19.29v10.29H276.08z"/>
	<path class="st0" d="M370.04,77.88c0,4.05-0.75,7.88-2.26,11.49c-1.5,3.61-3.67,6.78-6.5,9.51c-2.93,2.81-6.24,4.96-9.91,6.46
		c-3.68,1.49-7.48,2.24-11.42,2.24c-3.45,0-6.82-0.59-10.13-1.76c-3.3-1.17-6.33-2.86-9.08-5.05c-3.55-2.84-6.27-6.23-8.16-10.17
		c-1.89-3.95-2.83-8.19-2.83-12.73c0-4.07,0.75-7.9,2.24-11.47c1.49-3.57,3.68-6.75,6.56-9.53c2.83-2.76,6.11-4.9,9.86-6.42
		c3.74-1.52,7.59-2.28,11.55-2.28c3.94,0,7.76,0.76,11.48,2.28c3.72,1.52,7,3.66,9.86,6.42c2.85,2.78,5.03,5.97,6.52,9.55
		C369.3,70.02,370.04,73.84,370.04,77.88z"/>
	<path class="st0" d="M438.05,77.88c0,4.05-0.75,7.88-2.26,11.49c-1.5,3.61-3.67,6.78-6.5,9.51c-2.93,2.81-6.24,4.96-9.91,6.46
		c-3.68,1.49-7.48,2.24-11.42,2.24c-3.45,0-6.82-0.59-10.13-1.76c-3.3-1.17-6.33-2.86-9.08-5.05c-3.55-2.84-6.27-6.23-8.16-10.17
		c-1.89-3.95-2.83-8.19-2.83-12.73c0-4.07,0.75-7.9,2.24-11.47c1.49-3.57,3.68-6.75,6.56-9.53c2.83-2.76,6.11-4.9,9.86-6.42
		c3.74-1.52,7.59-2.28,11.55-2.28c3.94,0,7.76,0.76,11.48,2.28c3.72,1.52,7,3.66,9.86,6.42c2.85,2.78,5.03,5.97,6.52,9.55
		C437.3,70.02,438.05,73.84,438.05,77.88z"/>
	<path class="st0" d="M448.23,106.08V49.46h12.07V75.1l18.82-25.64h13.96l-20.21,25.8l20.95,30.83h-14.54l-18.98-29.63v29.63H448.23
		z"/>
	<path class="st1" d="M232.16,102.52l-24.75-7.56c-8.36-2.56-13.08-11.43-10.53-19.81l14-46.04c2.55-8.38,11.4-13.11,19.76-10.55
		l24.75,7.56c8.36,2.56,13.08,11.43,10.53,19.81l-14,46.04C249.37,100.35,240.53,105.07,232.16,102.52z"/>
	<path class="st2" d="M226.12,82.9l-3.79-1.16c-7.92-2.42-12.39-10.83-9.97-18.77l15.17-49.89c2.42-7.95,10.8-12.42,18.72-10
		l3.79,1.16c7.92,2.42,12.39,10.83,9.97,18.77L244.84,72.9C242.42,80.84,234.04,85.32,226.12,82.9z"/>
	<ellipse class="st3" cx="236.45" cy="76.57" rx="28.69" ry="30.32"/>
</g>
</svg>
